<?xml version="1.0" standalone="no"?>
<!DOCTYPE svg PUBLIC "-//W3C//DTD SVG 20010904//EN"
 "http://www.w3.org/TR/2001/REC-SVG-20010904/DTD/svg10.dtd">
<svg xmlns="http://www.w3.org/2000/svg" version="1.1" id="Capa_1" x="0px" y="0px" viewBox="0 0 280.605 280.605"
	 style="enable-background:new 0 0 280.605 280.605;" xml:space="preserve" width="512px" height="512px">

<g transform="translate(0.000000,360.000000) scale(0.100000,-0.100000)"
fill="#000000" stroke="none">
<path d="M1348 3154 c-397 -72 -729 -383 -835 -783 -23 -84 -26 -117 -27 -261
0 -142 3 -177 23 -255 48 -185 131 -338 257 -473 300 -325 758 -427 1178 -264
l77 30 35 -20 c32 -19 97 -21 166 -7 12 3 101 -93 306 -331 l288 -335 43 -3
c131 -10 309 141 340 288 14 63 3 92 -52 140 -54 47 -553 477 -594 511 -31 26
-31 27 -17 68 16 48 10 106 -16 145 -16 26 -16 29 16 109 248 620 -137 1316
-799 1442 -97 18 -285 18 -389 -1z m415 -154 c343 -85 606 -354 683 -702 26
-116 22 -300 -9 -419 -78 -299 -300 -541 -587 -641 -188 -65 -422 -65 -610 0
-257 89 -473 305 -562 562 -67 193 -66 448 3 624 109 278 327 482 605 565 146
44 325 48 477 11z" fill="#ffaa33"/>
<path d="M1790 2220 l0 -410 -45 0 -45 0 0 295 0 295 -145 0 -145 0 0 -295 0
-295 -50 0 -50 0 0 190 0 190 -145 0 -145 0 0 -190 0 -190 -45 0 -45 0 0 -75
0 -75 625 0 626 0 -3 73 -3 72 -47 3 -48 3 0 410 0 409 -145 0 -145 0 0 -410z" fill="#ffaa33"/>
</g>
</svg>
